<mxfile host="app.diagrams.net" agent="Mozilla/5.0 (Windows NT 10.0; Win64; x64) AppleWebKit/537.36 (KHTML, like Gecko) Chrome/129.0.0.0 Safari/537.36" version="24.7.17">
  <diagram name="Side-1" id="Rom5atK7e3OmJeVvDe-4">
    <mxGraphModel dx="180" dy="530" grid="1" gridSize="10" guides="1" tooltips="1" connect="1" arrows="1" fold="1" page="1" pageScale="1" pageWidth="827" pageHeight="1169" math="0" shadow="0">
      <root>
        <mxCell id="0" />
        <mxCell id="1" parent="0" />
        <mxCell id="Q9PjpjzhNw_vaOO2zB_T-1" value="&lt;font style=&quot;font-size: 22px;&quot;&gt;UI&lt;/font&gt;" style="swimlane;whiteSpace=wrap;html=1;startSize=40;fillColor=#dae8fc;strokeColor=#6c8ebf;" vertex="1" parent="1">
          <mxGeometry x="1120" y="320" width="280" height="160" as="geometry" />
        </mxCell>
        <mxCell id="Q9PjpjzhNw_vaOO2zB_T-2" value="&lt;font style=&quot;font-size: 24px;&quot;&gt;Display / Input&lt;/font&gt;" style="rounded=1;whiteSpace=wrap;html=1;fontSize=24;" vertex="1" parent="Q9PjpjzhNw_vaOO2zB_T-1">
          <mxGeometry x="60" y="65" width="150" height="60" as="geometry" />
        </mxCell>
        <mxCell id="Q9PjpjzhNw_vaOO2zB_T-3" value="" style="shape=offPageConnector;whiteSpace=wrap;html=1;rotation=-180;size=0.1111111111111111;" vertex="1" parent="1">
          <mxGeometry x="1190" y="230" width="16" height="45" as="geometry" />
        </mxCell>
        <mxCell id="Q9PjpjzhNw_vaOO2zB_T-5" style="edgeStyle=orthogonalEdgeStyle;rounded=0;orthogonalLoop=1;jettySize=auto;html=1;entryX=0.279;entryY=0;entryDx=0;entryDy=0;entryPerimeter=0;endArrow=none;endFill=0;strokeWidth=2;" edge="1" parent="1" source="Q9PjpjzhNw_vaOO2zB_T-3" target="Q9PjpjzhNw_vaOO2zB_T-1">
          <mxGeometry relative="1" as="geometry" />
        </mxCell>
        <mxCell id="Q9PjpjzhNw_vaOO2zB_T-6" value="" style="shape=offPageConnector;whiteSpace=wrap;html=1;rotation=0;size=0.1111111111111111;" vertex="1" parent="1">
          <mxGeometry x="1310" y="230" width="16" height="45" as="geometry" />
        </mxCell>
        <mxCell id="Q9PjpjzhNw_vaOO2zB_T-10" style="edgeStyle=orthogonalEdgeStyle;rounded=0;orthogonalLoop=1;jettySize=auto;html=1;entryX=0.707;entryY=0;entryDx=0;entryDy=0;entryPerimeter=0;strokeWidth=2;" edge="1" parent="1" source="Q9PjpjzhNw_vaOO2zB_T-6" target="Q9PjpjzhNw_vaOO2zB_T-1">
          <mxGeometry relative="1" as="geometry" />
        </mxCell>
        <mxCell id="Q9PjpjzhNw_vaOO2zB_T-11" value="&lt;font style=&quot;font-size: 18px;&quot;&gt;Test Parameters&lt;br style=&quot;font-size: 18px;&quot;&gt;(To MCU)&lt;/font&gt;" style="text;html=1;align=center;verticalAlign=middle;resizable=0;points=[];autosize=1;strokeColor=none;fillColor=none;fontSize=18;rotation=-45;" vertex="1" parent="1">
          <mxGeometry x="1103" y="170" width="150" height="60" as="geometry" />
        </mxCell>
        <mxCell id="Q9PjpjzhNw_vaOO2zB_T-13" value="&lt;font style=&quot;font-size: 18px;&quot;&gt;Test Results&lt;br style=&quot;font-size: 18px;&quot;&gt;(From MCU)&lt;/font&gt;" style="text;html=1;align=center;verticalAlign=middle;resizable=0;points=[];autosize=1;strokeColor=none;fillColor=none;fontSize=18;rotation=-45;" vertex="1" parent="1">
          <mxGeometry x="1245" y="170" width="120" height="60" as="geometry" />
        </mxCell>
      </root>
    </mxGraphModel>
  </diagram>
</mxfile>
